# xmcd
#
# Track frame offsets:
# 150
# 7303
# 15251
# 32096
# 50737
# 65227
# 84470
# 106971
# 125318
# 142984
# 164217
# 181369
# 197934
# 220496
# 240916
# 262073
# 277634
# 293848
# 314307
#
# Disc length: 4477 seconds
#
# Revision: 0
# Processed by: cddbd v1.4PL0 Copyright (c) Steve Scherf et al.
# Submitted via: Audion 3.0.2 (http://www.panic.com/audion/)
#
DISCID=1b117b13
DTITLE=gill - gills cd
DYEAR=1900
DGENRE=
TTITLE0=fd
TTITLE1=sdf
TTITLE2=fdg
TTITLE3=dg
TTITLE4=df
TTITLE5=ffg
TTITLE6=utr
TTITLE7=122132
TTITLE8=87
TTITLE9=56
TTITLE10=05
TTITLE11=83
TTITLE12=40
TTITLE13=754
TTITLE14=P876
TTITLE15=gb676
TTITLE16=jkhg4
TTITLE17=7gt67
TTITLE18=555
EXTD=
EXTT0=
EXTT1=
EXTT2=
EXTT3=
EXTT4=
EXTT5=
EXTT6=
EXTT7=
EXTT8=
EXTT9=
EXTT10=
EXTT11=
EXTT12=
EXTT13=
EXTT14=
EXTT15=
EXTT16=
EXTT17=
EXTT18=
PLAYORDER=
